<svg xmlns="http://www.w3.org/2000/svg" xmlns:xlink="http://www.w3.org/1999/xlink" id="Layer_1" x="0px" y="0px" viewBox="0 0 512 512" style="enable-background:new 0 0 512 512;" xml:space="preserve"><g>	<g>		<ellipse cx="68.256" cy="125.052" rx="13.184" ry="13.168"></ellipse>	</g></g><g>	<g>		<ellipse cx="103.208" cy="125.052" rx="13.184" ry="13.168"></ellipse>	</g></g><g>	<g>		<ellipse cx="138.16" cy="125.052" rx="13.184" ry="13.168"></ellipse>	</g></g><g>	<g>		<polygon points="202.024,104.34 174.216,146.916 456.928,146.916 456.928,104.34   "></polygon>	</g></g><g>	<g>		<path d="M488,49.332H24c-13.2,0-24,10.8-24,24v365.336c0,13.2,10.8,24,24,24h464c13.2,0,24-10.8,24-24V73.332   C512,60.132,501.2,49.332,488,49.332z M480,421.916L457.856,405.1h-63.632l33.544,25.568h-27.704L366.4,405.1H145.592   l-33.664,25.568H84.224l33.544-25.568H54.144L32,421.916V81.332h448V421.916z"></path>	</g></g><g>	<g>		<g>			<polygon points="90.104,232.476 90.104,232.476 90.104,232.476    "></polygon>			<path d="M183.784,232.484l-10.408,44.624c-0.672,2.688-1.416,6.2-2.232,10.536c-0.824,4.344-1.416,7.968-1.792,10.88    c-0.416-3.024-1.008-6.64-1.792-10.848c-0.784-4.208-1.44-7.344-1.96-9.4l-11.904-45.8h-16.392l-11.904,45.8    c-0.712,2.464-1.472,5.92-2.264,10.376c-0.808,4.464-1.312,7.752-1.536,9.872c-0.824-6.04-2.152-13.176-3.968-21.424    l-10.464-44.624H90.104l20.856,81.76h19.688l11.016-42.832c0.488-1.896,1.168-5.08,2.072-9.528    c0.888-4.464,1.456-7.696,1.672-9.704c0.152,1.64,0.72,4.848,1.712,9.64c0.984,4.8,1.68,7.952,2.096,9.488l11.072,42.944h19.744    l20.808-81.76H183.784z"></path>		</g>	</g></g><g>	<g>		<path d="M294.512,232.476L284.104,277.1c-0.672,2.688-1.416,6.2-2.232,10.536c-0.824,4.344-1.416,7.968-1.792,10.88   c-0.416-3.024-1.008-6.64-1.792-10.848c-0.784-4.208-1.44-7.344-1.96-9.4l-11.904-45.8h-16.392l-11.904,45.8   c-0.712,2.464-1.472,5.92-2.264,10.376c-0.808,4.464-1.312,7.752-1.536,9.872c-0.824-6.04-2.152-13.176-3.968-21.424   l-10.464-44.624H200.84l20.856,81.76h19.68v0l11.016-42.832c0.488-1.896,1.168-5.08,2.072-9.528   c0.888-4.464,1.456-7.696,1.672-9.704c0.152,1.64,0.72,4.848,1.712,9.64c0.984,4.8,1.68,7.952,2.096,9.488l11.072,42.944h19.744   l20.808-81.76H294.512z"></path>	</g></g><g>	<g>		<path d="M405.24,232.476L394.832,277.1c-0.672,2.688-1.416,6.2-2.232,10.536c-0.824,4.344-1.416,7.968-1.792,10.88   c-0.416-3.024-1.008-6.64-1.792-10.848c-0.784-4.208-1.44-7.344-1.96-9.4l-11.904-45.8H358.76l-11.904,45.8   c-0.712,2.464-1.472,5.92-2.264,10.376c-0.808,4.464-1.312,7.752-1.536,9.872c-0.824-6.04-2.152-13.176-3.968-21.424   l-10.464-44.624h-17.056l20.856,81.76h19.68v0l11.016-42.832c0.488-1.896,1.168-5.08,2.072-9.528   c0.888-4.464,1.456-7.696,1.672-9.704c0.152,1.64,0.72,4.848,1.712,9.64c0.984,4.8,1.68,7.952,2.096,9.488l11.072,42.944h19.744   l20.808-81.76H405.24z"></path>	</g></g><g></g><g></g><g></g><g></g><g></g><g></g><g></g><g></g><g></g><g></g><g></g><g></g><g></g><g></g><g></g></svg>